<svg role="img" viewBox="0 0 24 24" xmlns="http://www.w3.org/2000/svg" id="Youtube--Streamline-Simple-Icons" height="24" width="24">
  <title>YouTube</title>
  <path d="M23.498 6.186a3.016 3.016 0 0 0 -2.122 -2.136C19.505 3.545 12 3.545 12 3.545s-7.505 0 -9.377 0.505A3.017 3.017 0 0 0 0.502 6.186C0 8.07 0 12 0 12s0 3.93 0.502 5.814a3.016 3.016 0 0 0 2.122 2.136c1.871 0.505 9.376 0.505 9.376 0.505s7.505 0 9.377 -0.505a3.015 3.015 0 0 0 2.122 -2.136C24 15.93 24 12 24 12s0 -3.93 -0.502 -5.814zM9.545 15.568V8.432L15.818 12l-6.273 3.568z" fill="#000000" stroke-width="1"></path>
</svg>